<svg id="圖層_1" data-name="圖層 1" xmlns="http://www.w3.org/2000/svg" xmlns:xlink="http://www.w3.org/1999/xlink" viewBox="0 0 85.04 85.04"><defs><style>.cls-1{fill:none;}.cls-2{clip-path:url(#clip-path);}.cls-3{fill:#919191;}.cls-4{fill:#fff;}</style><clipPath id="clip-path"><rect class="cls-1" x="0.53" y="1.56" width="82.21" height="82.27"/></clipPath></defs><title>icon</title><g class="cls-2"><path class="cls-3" d="M7.29,35.82V75.26a5.15,5.15,0,0,0,5.14,5.14H74.16a5.14,5.14,0,0,0,5.14-5.14V35.82Zm66.87,48H12.43a8.59,8.59,0,0,1-8.57-8.57V34.11a1.72,1.72,0,0,1,1.72-1.72H81a1.72,1.72,0,0,1,1.71,1.72V75.26a8.58,8.58,0,0,1-8.57,8.57Z"/><path class="cls-3" d="M74.76,5a1.57,1.57,0,0,0-.37,0L5.31,21.41a1.77,1.77,0,0,0-1.1.78A1.75,1.75,0,0,0,4,23.51l2.2,8.69,72.7-16.52L76.44,6.3A1.75,1.75,0,0,0,74.76,5ZM5.58,38.41a1.71,1.71,0,0,1-1.66-1.3L.69,24.34a5.05,5.05,0,0,1,.6-3.94,5.09,5.09,0,0,1,3.24-2.32L73.61,1.69a5.17,5.17,0,0,1,6.15,3.76l2.92,11.07a1.72,1.72,0,0,1-1.28,2.12L7.05,35.53l.19.74A1.71,1.71,0,0,1,6,38.35a1.64,1.64,0,0,1-.42.06Z"/></g><path class="cls-3" d="M12.43,49.54a1.76,1.76,0,0,1-.76-.18,1.73,1.73,0,0,1-.77-2.31l6.86-13.71a1.72,1.72,0,1,1,3.07,1.53L14,48.59a1.72,1.72,0,0,1-1.54.95Z"/><path class="cls-3" d="M29.58,49.54a1.77,1.77,0,0,1-.77-.18A1.74,1.74,0,0,1,28,47.05L34.9,33.34A1.72,1.72,0,0,1,38,34.87L31.11,48.59a1.71,1.71,0,0,1-1.53.95Z"/><path class="cls-3" d="M46.73,49.54a1.77,1.77,0,0,1-.77-.18,1.73,1.73,0,0,1-.77-2.31l6.86-13.71a1.72,1.72,0,0,1,3.07,1.53L48.26,48.59a1.72,1.72,0,0,1-1.53.95Z"/><path class="cls-3" d="M63.87,49.54a1.77,1.77,0,0,1-.77-.18,1.72,1.72,0,0,1-.76-2.31l6.85-13.71a1.72,1.72,0,1,1,3.07,1.53L65.4,48.59a1.7,1.7,0,0,1-1.53.95Z"/><path class="cls-3" d="M81,49.54H5.58a1.72,1.72,0,1,1,0-3.43H81a1.72,1.72,0,0,1,0,3.43Z"/><path class="cls-3" d="M21,32.33a1.75,1.75,0,0,1-1.22-.5L7.92,20a1.71,1.71,0,0,1,2.43-2.42L22.16,29.4A1.72,1.72,0,0,1,21,32.33Z"/><path class="cls-3" d="M37.72,28.51A1.71,1.71,0,0,1,36.5,28L24.69,16.2a1.71,1.71,0,1,1,2.42-2.42L38.93,25.59a1.71,1.71,0,0,1,0,2.42,1.67,1.67,0,0,1-1.21.5Z"/><path class="cls-3" d="M54.48,24.7a1.69,1.69,0,0,1-1.21-.5L41.47,12.39A1.71,1.71,0,0,1,43.89,10l11.8,11.82a1.71,1.71,0,0,1,0,2.42,1.67,1.67,0,0,1-1.21.5Z"/><path class="cls-3" d="M71.24,20.9A1.75,1.75,0,0,1,70,20.4L58.22,8.58a1.71,1.71,0,0,1,2.43-2.42L72.45,18a1.72,1.72,0,0,1-1.21,2.93Z"/><polygon class="cls-3" points="5.89 47.82 80.41 47.82 80.41 75.75 75.91 81.38 12.44 81.38 5.89 77.44 5.89 47.82"/><path class="cls-4" d="M36,65.33V59.12a1.89,1.89,0,0,1,2.83-1.64l5.38,3.11,5.38,3.11a1.89,1.89,0,0,1,0,3.27l-5.38,3.11-5.38,3.1A1.88,1.88,0,0,1,36,71.55Z"/></svg>