<svg id="圖層_1" data-name="圖層 1" xmlns="http://www.w3.org/2000/svg" viewBox="0 0 85.04 85.04"><defs><style>.cls-1{fill:#fff;opacity:0.5;isolation:isolate;}.cls-2{fill:#fc7373;stroke:#fc7373;}</style></defs><title>icon</title><g id="Group_17" data-name="Group 17"><g id="Group_15" data-name="Group 15"><circle id="Ellipse_6" data-name="Ellipse 6" class="cls-1" cx="41.99" cy="42.52" r="40.34"/><path id="Icon_ionic-ios-return-left" data-name="Icon ionic-ios-return-left" class="cls-2" d="M18,43.86l7.56-7.54a1.77,1.77,0,0,1,1.26-.52,1.71,1.71,0,0,1,1.26.52,1.78,1.78,0,0,1,0,2.51h0L22.8,43.93H56a6.38,6.38,0,0,0,6.35-6.35V31.49a1.78,1.78,0,0,1,3.55,0h0v6.1a9.93,9.93,0,0,1-9.9,9.9H22.75l5,5.1a1.74,1.74,0,0,1,.52,1.26,1.69,1.69,0,0,1-.52,1.25h0a1.81,1.81,0,0,1-1.24.5,1.71,1.71,0,0,1-1.26-.52L18,47.8a2.79,2.79,0,0,1-.83-2A2.72,2.72,0,0,1,18,43.86Z"/></g></g></svg>