<svg id="圖層_1" data-name="圖層 1" xmlns="http://www.w3.org/2000/svg" viewBox="0 0 85.04 85.04"><defs><style>.cls-1{fill:#919191;}</style></defs><title>icon</title><path id="Icon_awesome-laptop-code" data-name="Icon awesome-laptop-code" class="cls-1" d="M34.18,45.05a2.09,2.09,0,0,0,3,0h0l1.47-1.47a2.08,2.08,0,0,0,0-2.95h0L34,36l4.65-4.65a2.09,2.09,0,0,0,0-2.95h0l-1.47-1.47a2.08,2.08,0,0,0-3,0h0l-7.6,7.59a2.09,2.09,0,0,0,0,3h0l7.6,7.6Zm12.51-1.47,1.47,1.47a2.09,2.09,0,0,0,3,0h0l7.6-7.6a2.08,2.08,0,0,0,0-2.94h0l-7.6-7.6a2.08,2.08,0,0,0-3,0h0l-1.47,1.47a2.08,2.08,0,0,0,0,2.95h0L51.34,36l-4.65,4.65a2.08,2.08,0,0,0,0,2.95ZM82.24,65.15H50.66a4.1,4.1,0,0,1-4,4.17H38.48a4.42,4.42,0,0,1-4.27-4.17H3.05A2.09,2.09,0,0,0,1,67.24v2.08A8.34,8.34,0,0,0,9.3,77.65H76a8.35,8.35,0,0,0,8.33-8.33V67.24A2.09,2.09,0,0,0,82.24,65.15ZM76,17.22A6.27,6.27,0,0,0,69.73,11H15.55A6.27,6.27,0,0,0,9.3,17.22V61H76ZM67.65,52.65h-50V19.31h50Z"/></svg>