<svg id="圖層_1" data-name="圖層 1" xmlns="http://www.w3.org/2000/svg" viewBox="0 0 85.04 85.04"><defs><style>.cls-1{fill:#919191;}</style></defs><title>icon</title><path id="Icon_awesome-code" data-name="Icon awesome-code" class="cls-1" d="M37.34,79.87l-7.69-2.23a1.51,1.51,0,0,1-1-1.87h0l17.2-59.24a1.51,1.51,0,0,1,1.87-1h0l7.68,2.23a1.52,1.52,0,0,1,1,1.88h0L39.22,78.84a1.51,1.51,0,0,1-1.87,1ZM23,65.74l5.48-5.85a1.52,1.52,0,0,0-.07-2.14l0,0-11.42-10,11.42-10a1.5,1.5,0,0,0,.14-2.12l0-.05L23,29.63a1.52,1.52,0,0,0-2.14-.07h0l-18.15,17A1.51,1.51,0,0,0,2.6,48.7l.09.08,18.15,17a1.51,1.51,0,0,0,2.13,0Zm41.22.07,18.15-17a1.5,1.5,0,0,0,.09-2.12l-.09-.08-18.15-17a1.52,1.52,0,0,0-2.14.07l-5.48,5.84a1.52,1.52,0,0,0,.07,2.14l0,0,11.41,10-11.41,10a1.5,1.5,0,0,0-.15,2.12l0,0,5.48,5.85a1.52,1.52,0,0,0,2.14.07Z"/></svg>