<svg id="圖層_1" data-name="圖層 1" xmlns="http://www.w3.org/2000/svg" viewBox="0 0 85.04 85.04"><defs><style>.cls-1{fill:#919191;}</style></defs><title>icon</title><g id="Icon_ionic-ios-cube" data-name="Icon ionic-ios-cube"><path id="Path_6" data-name="Path 6" class="cls-1" d="M78.35,18,43.63,2.44a2.69,2.69,0,0,0-2.19,0L6.7,18A1.64,1.64,0,0,0,6,20.19a1.62,1.62,0,0,0,.64.68L41.27,39.12a2.68,2.68,0,0,0,2.52,0L78.43,20.87A1.63,1.63,0,0,0,79,18.65,1.66,1.66,0,0,0,78.35,18Z"/><path id="Path_7" data-name="Path 7" class="cls-1" d="M47.22,82.64,82.13,64.16a1.51,1.51,0,0,0,.7-1.31V27a1.43,1.43,0,0,0-1.36-1.52,1.58,1.58,0,0,0-.71.14l-34.92,18A1.52,1.52,0,0,0,45,45V81.3a1.46,1.46,0,0,0,1.39,1.53A1.4,1.4,0,0,0,47.22,82.64Z"/><path id="Path_8" data-name="Path 8" class="cls-1" d="M2.2,27V62.82a1.58,1.58,0,0,0,.7,1.32L37.82,82.62a1.42,1.42,0,0,0,2-.48A1.37,1.37,0,0,0,40,81.3V45a1.53,1.53,0,0,0-.82-1.38l-34.89-18a1.45,1.45,0,0,0-1.93.69A1.37,1.37,0,0,0,2.2,27Z"/></g></svg>