<svg id="圖層_1" data-name="圖層 1" xmlns="http://www.w3.org/2000/svg" viewBox="0 0 85.04 85.04"><defs><style>.cls-1{fill:#919191;}</style></defs><title>icon</title><path id="Icon_awesome-palette" data-name="Icon awesome-palette" class="cls-1" d="M34.38,3A40.14,40.14,0,0,0,3,34.26C-2.81,63.71,23.76,85.67,43.78,82.57c6.49-1,9.67-8.6,6.69-14.45a10.66,10.66,0,0,1,4.65-14.33,10.77,10.77,0,0,1,5-1.17H72.62A10.3,10.3,0,0,0,82.84,42.34,40.36,40.36,0,0,0,34.38,3ZM17.32,52.62a5,5,0,1,1,5-5,5,5,0,0,1-5,5Zm5-20.16a5,5,0,1,1,5-5h0a5,5,0,0,1-5,5ZM42.52,22.38a5,5,0,1,1,5-5,5,5,0,0,1-5,5ZM62.68,32.46a5,5,0,1,1,5-5,5,5,0,0,1-5,5Z"/></svg>