<svg id="圖層_1" data-name="圖層 1" xmlns="http://www.w3.org/2000/svg" viewBox="0 0 85.04 85.04"><defs><style>.cls-1{fill:#919191;}</style></defs><title>icon</title><g id="Icon_material-photo-camera" data-name="Icon material-photo-camera"><path id="Path_9" data-name="Path 9" class="cls-1" d="M55.26,46A12.74,12.74,0,1,1,42.52,33.26,12.74,12.74,0,0,1,55.26,46Z"/><path id="Path_10" data-name="Path 10" class="cls-1" d="M30.57,6.18l-7.29,8H10.66a8,8,0,0,0-8,8V69.9a8,8,0,0,0,8,8H74.38a8,8,0,0,0,8-8V22.11a8,8,0,0,0-8-8H61.76l-7.29-8Zm12,59.74A19.92,19.92,0,1,1,62.43,46,19.91,19.91,0,0,1,42.52,65.92Z"/></g></svg>